<svg width="41" height="32" viewBox="0 0 41 32" fill="none" xmlns="http://www.w3.org/2000/svg">
<g clip-path="url(#clip0)">
<path d="M31.4217 7.38867C36.2816 8.10406 40.7023 13.1662 40.9757 18.3203C41.3279 25.0475 37.6612 30.2392 31.1317 31.6826C29.303 32.1349 27.392 32.1241 25.5684 31.6512C23.7449 31.1783 22.0652 30.2578 20.6787 28.9716L20.9439 28.6746C21.4247 28.6553 21.903 28.5937 22.3732 28.4905C25.3853 27.612 27.4568 25.4784 29.0519 22.9348C32.0722 18.132 33.3483 12.9904 31.4217 7.38867Z" fill="#FE9E60"/>
<path d="M15.6943 31.4184C11.5512 32.7195 7.76858 31.7949 4.50797 29.0882C-2.614 23.1894 -1.0272 11.8017 7.37084 8.01143C7.75382 7.86567 8.14541 7.74412 8.54333 7.64746C7.67403 10.0315 7.47893 12.6129 7.97987 15.1026C8.88721 19.9889 11.0996 24.1976 15.2013 27.193C15.367 28.6071 15.5286 30.0127 15.6943 31.4184Z" fill="#49C9FA"/>
<path d="M15.2013 27.1929C11.0997 24.185 8.88726 19.9763 7.97992 15.0899C7.47898 12.6002 7.67407 10.0189 8.54338 7.63481L8.87897 7.28339C9.73245 7.21646 10.5901 7.16207 11.4435 7.0784C14.7953 6.75627 17.7493 7.64318 20.2269 10.0069C20.0081 10.3914 19.7557 10.7554 19.4728 11.0946C16.0631 14.5795 15.5908 20.9511 17.509 24.7037C18.2133 26.0717 19.1414 27.3268 19.97 28.6363C18.1761 28.8663 16.6845 28.0296 15.2013 27.1929Z" fill="#8770EE"/>
<path d="M31.4211 7.38875C33.3476 12.9905 32.0715 18.1321 29.0512 22.9348C27.4561 25.4784 25.3846 27.6121 22.3726 28.4906C21.8982 28.5945 21.4158 28.6561 20.9308 28.6747C21.3202 28.1517 21.7138 27.6288 22.1033 27.1017C23.255 25.5978 24.0514 23.8483 24.432 21.9865C24.8125 20.1247 24.7671 18.1997 24.2991 16.3583C23.7481 13.8858 22.3394 11.8735 20.7153 10.0118C23.0189 7.86986 25.7823 7.00387 28.8689 7.02478C29.6064 7.02478 30.3439 7.02478 31.0813 7.02478L31.4211 7.38875Z" fill="#B96BD2"/>
<path d="M31.0732 7.02446C30.3357 7.02446 29.5983 7.02446 28.8608 7.02446C25.7742 7.00354 23.0108 7.86117 20.7072 10.0115H20.239C17.7532 7.66454 14.8074 6.77763 11.4557 7.08303C10.6022 7.1667 9.74459 7.22109 8.89111 7.28802C10.7969 2.51041 16.3777 -0.673279 21.5441 0.121597C25.8695 0.790965 29.1384 2.96641 31.0732 7.02446Z" fill="#BA93F8"/>
<path d="M20.2272 10.0029H20.6953C22.3526 11.8646 23.7488 13.8769 24.3122 16.3494C24.7802 18.1908 24.8257 20.1157 24.4451 21.9776C24.0646 23.8394 23.2681 25.5889 22.1164 27.0927C21.727 27.6199 21.3334 28.1428 20.9439 28.6658L20.6788 28.9628L20.426 28.9168L19.9744 28.6281C19.1458 27.3187 18.2178 26.0636 17.5134 24.6956C15.5952 20.9304 16.0675 14.5714 19.4773 11.0865C19.7585 10.7484 20.0095 10.3858 20.2272 10.0029Z" fill="#AA5ED1"/>
<path d="M19.974 28.6367L20.4256 28.9254L15.6942 31.4355C15.5285 30.0298 15.3669 28.6241 15.2012 27.2227C16.6844 28.0301 18.1759 28.8668 19.974 28.6367Z" fill="#4C83DC"/>
</g>
<defs>
<clipPath id="clip0">
<rect width="41" height="32" fill="white"/>
</clipPath>
</defs>
</svg>
