<svg width="131" height="131" viewBox="0 0 131 131" fill="none" xmlns="http://www.w3.org/2000/svg">
<rect width="131" height="131" fill="#CACACA"/>
<g clip-path="url(#clip0)">
<rect width="1440" height="2200" transform="translate(-174 -771)" fill="white"/>
<rect x="-69.5" y="-40.5" width="271" height="250" rx="5.5" fill="white" stroke="#CFCFCF"/>
<circle cx="65.5" cy="65.5" r="65.5" fill="#488EE0"/>
<g clip-path="url(#clip1)">
<path d="M48.2742 62.4246C47.9075 64.4711 47.9227 66.5329 48.2742 68.5337V91.8857C48.1672 91.8246 48.0603 91.7482 47.9686 91.6718C36.0959 83.73 31.0229 68.5948 35.7903 55.0479L48.5339 61.1875C48.427 61.5998 48.3353 62.0122 48.2742 62.4246Z" fill="#FCFCFC"/>
<path d="M93.8854 79.192C86.8566 93.7469 70.0178 100.467 55.1044 95.2436C54.9975 95.2131 54.8905 95.1672 54.7988 95.1367V79.3447C54.9058 79.4211 54.9975 79.4974 55.1044 79.5738C55.9601 80.2152 56.8922 80.7651 57.8854 81.2538C66.5798 85.4538 77.062 81.7883 81.264 73.0981C83.2046 69.0967 83.4032 64.7287 82.2725 60.7578L94.8786 54.2363C97.8888 62.0712 97.8124 71.0516 93.8854 79.192Z" fill="#FCFCFC"/>
<path d="M73.1182 49.7307C75.5325 50.8914 77.5036 52.5714 79.0775 54.5263L91.6683 48.0049C88.6428 43.4689 84.4561 39.6507 79.1997 37.1154C64.6225 30.09 47.2337 35.3438 38.8296 48.738L51.5732 54.8929C56.5087 48.4172 65.4934 46.0652 73.1182 49.7307Z" fill="#FCFCFC"/>
<path d="M74.9668 70.0558C77.4901 64.8294 75.2967 58.5481 70.0678 56.026C64.8389 53.5039 58.5545 55.6962 56.0312 60.9226C53.5079 66.1489 55.7013 72.4303 60.9302 74.9524C66.1591 77.4744 72.4435 75.2822 74.9668 70.0558Z" fill="#FCFCFC"/>
<path d="M48.2714 61.1855V91.8685C48.1645 91.8074 48.0575 91.731 47.9658 91.6546V61.1855H48.2714Z" fill="#FCFCFC"/>
</g>
</g>
<defs>
<clipPath id="clip0">
<rect width="1440" height="2200" fill="white" transform="translate(-174 -771)"/>
</clipPath>
<clipPath id="clip1">
<rect width="63" height="63" fill="white" transform="translate(34 34)"/>
</clipPath>
</defs>
</svg>
